<mxfile host="Electron" modified="2023-10-30T23:24:35.078Z" agent="Mozilla/5.0 (X11; Linux x86_64) AppleWebKit/537.36 (KHTML, like Gecko) draw.io/22.0.3 Chrome/114.0.5735.289 Electron/25.8.4 Safari/537.36" etag="upf0_5jhIvaeCr-gMBjt" version="22.0.3" type="device">
  <diagram name="Page-1" id="0UYMCnvOzsxWb8sQsme0">
    <mxGraphModel dx="1768" dy="1326" grid="1" gridSize="10" guides="1" tooltips="1" connect="1" arrows="1" fold="1" page="1" pageScale="1" pageWidth="3300" pageHeight="2339" math="0" shadow="0">
      <root>
        <mxCell id="0" />
        <mxCell id="1" parent="0" />
        <mxCell id="RoFxJig_Ldpdsz5BAczf-5" style="edgeStyle=orthogonalEdgeStyle;rounded=0;orthogonalLoop=1;jettySize=auto;html=1;entryX=0;entryY=0.5;entryDx=0;entryDy=0;" edge="1" parent="1" source="RoFxJig_Ldpdsz5BAczf-3" target="RoFxJig_Ldpdsz5BAczf-4">
          <mxGeometry relative="1" as="geometry" />
        </mxCell>
        <mxCell id="RoFxJig_Ldpdsz5BAczf-3" value="User" style="ellipse;whiteSpace=wrap;html=1;" vertex="1" parent="1">
          <mxGeometry x="230" y="251.25" width="120" height="80" as="geometry" />
        </mxCell>
        <mxCell id="RoFxJig_Ldpdsz5BAczf-17" style="edgeStyle=orthogonalEdgeStyle;rounded=0;orthogonalLoop=1;jettySize=auto;html=1;exitX=0.5;exitY=1;exitDx=0;exitDy=0;" edge="1" parent="1" source="RoFxJig_Ldpdsz5BAczf-4" target="RoFxJig_Ldpdsz5BAczf-14">
          <mxGeometry relative="1" as="geometry" />
        </mxCell>
        <mxCell id="RoFxJig_Ldpdsz5BAczf-4" value="Register New Player" style="rounded=1;whiteSpace=wrap;html=1;" vertex="1" parent="1">
          <mxGeometry x="470" y="231.25" width="120" height="120" as="geometry" />
        </mxCell>
        <mxCell id="RoFxJig_Ldpdsz5BAczf-6" value="Request" style="text;html=1;strokeColor=none;fillColor=none;align=center;verticalAlign=middle;whiteSpace=wrap;rounded=0;" vertex="1" parent="1">
          <mxGeometry x="380" y="251.25" width="60" height="30" as="geometry" />
        </mxCell>
        <mxCell id="RoFxJig_Ldpdsz5BAczf-23" style="edgeStyle=orthogonalEdgeStyle;rounded=0;orthogonalLoop=1;jettySize=auto;html=1;entryX=0.5;entryY=0;entryDx=0;entryDy=0;" edge="1" parent="1" source="RoFxJig_Ldpdsz5BAczf-8" target="RoFxJig_Ldpdsz5BAczf-21">
          <mxGeometry relative="1" as="geometry" />
        </mxCell>
        <mxCell id="RoFxJig_Ldpdsz5BAczf-8" value="B" style="rounded=0;whiteSpace=wrap;html=1;" vertex="1" parent="1">
          <mxGeometry x="790" y="190" width="40" height="40" as="geometry" />
        </mxCell>
        <mxCell id="RoFxJig_Ldpdsz5BAczf-10" value="" style="endArrow=none;html=1;rounded=0;exitX=1;exitY=0;exitDx=0;exitDy=0;" edge="1" parent="1" source="RoFxJig_Ldpdsz5BAczf-8">
          <mxGeometry width="50" height="50" relative="1" as="geometry">
            <mxPoint x="790" y="200" as="sourcePoint" />
            <mxPoint x="930" y="190" as="targetPoint" />
          </mxGeometry>
        </mxCell>
        <mxCell id="RoFxJig_Ldpdsz5BAczf-12" value="Players info" style="text;html=1;strokeColor=none;fillColor=none;align=center;verticalAlign=middle;whiteSpace=wrap;rounded=0;" vertex="1" parent="1">
          <mxGeometry x="840" y="195" width="70" height="30" as="geometry" />
        </mxCell>
        <mxCell id="RoFxJig_Ldpdsz5BAczf-13" value="" style="endArrow=none;html=1;rounded=0;exitX=1;exitY=0;exitDx=0;exitDy=0;" edge="1" parent="1">
          <mxGeometry width="50" height="50" relative="1" as="geometry">
            <mxPoint x="830" y="230" as="sourcePoint" />
            <mxPoint x="930" y="230" as="targetPoint" />
          </mxGeometry>
        </mxCell>
        <mxCell id="RoFxJig_Ldpdsz5BAczf-15" style="edgeStyle=orthogonalEdgeStyle;rounded=0;orthogonalLoop=1;jettySize=auto;html=1;entryX=0.5;entryY=1;entryDx=0;entryDy=0;" edge="1" parent="1" source="RoFxJig_Ldpdsz5BAczf-14" target="RoFxJig_Ldpdsz5BAczf-3">
          <mxGeometry relative="1" as="geometry" />
        </mxCell>
        <mxCell id="RoFxJig_Ldpdsz5BAczf-18" style="edgeStyle=orthogonalEdgeStyle;rounded=0;orthogonalLoop=1;jettySize=auto;html=1;exitX=1;exitY=0.5;exitDx=0;exitDy=0;entryX=0.5;entryY=1;entryDx=0;entryDy=0;" edge="1" parent="1" source="RoFxJig_Ldpdsz5BAczf-14" target="RoFxJig_Ldpdsz5BAczf-21">
          <mxGeometry relative="1" as="geometry">
            <mxPoint x="790" y="506.25" as="targetPoint" />
          </mxGeometry>
        </mxCell>
        <mxCell id="RoFxJig_Ldpdsz5BAczf-14" value="Exist in DataBase?" style="rhombus;whiteSpace=wrap;html=1;" vertex="1" parent="1">
          <mxGeometry x="465" y="441.2500000000001" width="130" height="130" as="geometry" />
        </mxCell>
        <mxCell id="RoFxJig_Ldpdsz5BAczf-16" value="Yes" style="text;html=1;strokeColor=none;fillColor=none;align=center;verticalAlign=middle;whiteSpace=wrap;rounded=0;" vertex="1" parent="1">
          <mxGeometry x="380" y="516.25" width="60" height="30" as="geometry" />
        </mxCell>
        <mxCell id="RoFxJig_Ldpdsz5BAczf-19" value="No" style="text;html=1;strokeColor=none;fillColor=none;align=center;verticalAlign=middle;whiteSpace=wrap;rounded=0;" vertex="1" parent="1">
          <mxGeometry x="640" y="516.25" width="60" height="30" as="geometry" />
        </mxCell>
        <mxCell id="RoFxJig_Ldpdsz5BAczf-20" value="Back to main menu" style="text;html=1;strokeColor=none;fillColor=none;align=center;verticalAlign=middle;whiteSpace=wrap;rounded=0;" vertex="1" parent="1">
          <mxGeometry x="220" y="411.25" width="70" height="30" as="geometry" />
        </mxCell>
        <mxCell id="RoFxJig_Ldpdsz5BAczf-21" value="Register informations in Data Base" style="rounded=1;whiteSpace=wrap;html=1;" vertex="1" parent="1">
          <mxGeometry x="640" y="301.25" width="140" height="140" as="geometry" />
        </mxCell>
        <mxCell id="RoFxJig_Ldpdsz5BAczf-26" value="New Player" style="shape=umlFrame;whiteSpace=wrap;html=1;pointerEvents=0;width=120;height=30;" vertex="1" parent="1">
          <mxGeometry x="190" y="160" width="760" height="420" as="geometry" />
        </mxCell>
        <mxCell id="RoFxJig_Ldpdsz5BAczf-28" style="edgeStyle=orthogonalEdgeStyle;rounded=0;orthogonalLoop=1;jettySize=auto;html=1;entryX=0;entryY=0.5;entryDx=0;entryDy=0;" edge="1" parent="1" source="RoFxJig_Ldpdsz5BAczf-29" target="RoFxJig_Ldpdsz5BAczf-31">
          <mxGeometry relative="1" as="geometry" />
        </mxCell>
        <mxCell id="RoFxJig_Ldpdsz5BAczf-29" value="User" style="ellipse;whiteSpace=wrap;html=1;" vertex="1" parent="1">
          <mxGeometry x="250" y="751.25" width="120" height="80" as="geometry" />
        </mxCell>
        <mxCell id="RoFxJig_Ldpdsz5BAczf-30" style="edgeStyle=orthogonalEdgeStyle;rounded=0;orthogonalLoop=1;jettySize=auto;html=1;exitX=0.5;exitY=1;exitDx=0;exitDy=0;" edge="1" parent="1" source="RoFxJig_Ldpdsz5BAczf-31" target="RoFxJig_Ldpdsz5BAczf-40">
          <mxGeometry relative="1" as="geometry" />
        </mxCell>
        <mxCell id="RoFxJig_Ldpdsz5BAczf-31" value="Player info" style="rounded=1;whiteSpace=wrap;html=1;" vertex="1" parent="1">
          <mxGeometry x="445" y="731.25" width="120" height="120" as="geometry" />
        </mxCell>
        <mxCell id="RoFxJig_Ldpdsz5BAczf-32" value="Request" style="text;html=1;strokeColor=none;fillColor=none;align=center;verticalAlign=middle;whiteSpace=wrap;rounded=0;" vertex="1" parent="1">
          <mxGeometry x="370" y="801.25" width="60" height="30" as="geometry" />
        </mxCell>
        <mxCell id="RoFxJig_Ldpdsz5BAczf-49" style="edgeStyle=orthogonalEdgeStyle;rounded=0;orthogonalLoop=1;jettySize=auto;html=1;entryX=0.75;entryY=0;entryDx=0;entryDy=0;" edge="1" parent="1" source="RoFxJig_Ldpdsz5BAczf-34" target="RoFxJig_Ldpdsz5BAczf-44">
          <mxGeometry relative="1" as="geometry" />
        </mxCell>
        <mxCell id="RoFxJig_Ldpdsz5BAczf-34" value="B" style="rounded=0;whiteSpace=wrap;html=1;" vertex="1" parent="1">
          <mxGeometry x="840" y="700" width="40" height="40" as="geometry" />
        </mxCell>
        <mxCell id="RoFxJig_Ldpdsz5BAczf-35" value="" style="endArrow=none;html=1;rounded=0;exitX=1;exitY=0;exitDx=0;exitDy=0;" edge="1" parent="1" source="RoFxJig_Ldpdsz5BAczf-34">
          <mxGeometry width="50" height="50" relative="1" as="geometry">
            <mxPoint x="840" y="710" as="sourcePoint" />
            <mxPoint x="980" y="700" as="targetPoint" />
          </mxGeometry>
        </mxCell>
        <mxCell id="RoFxJig_Ldpdsz5BAczf-36" value="Players info" style="text;html=1;strokeColor=none;fillColor=none;align=center;verticalAlign=middle;whiteSpace=wrap;rounded=0;" vertex="1" parent="1">
          <mxGeometry x="890" y="705" width="70" height="30" as="geometry" />
        </mxCell>
        <mxCell id="RoFxJig_Ldpdsz5BAczf-37" value="" style="endArrow=none;html=1;rounded=0;exitX=1;exitY=0;exitDx=0;exitDy=0;" edge="1" parent="1">
          <mxGeometry width="50" height="50" relative="1" as="geometry">
            <mxPoint x="880" y="740" as="sourcePoint" />
            <mxPoint x="980" y="740" as="targetPoint" />
          </mxGeometry>
        </mxCell>
        <mxCell id="RoFxJig_Ldpdsz5BAczf-38" style="edgeStyle=orthogonalEdgeStyle;rounded=0;orthogonalLoop=1;jettySize=auto;html=1;entryX=0.5;entryY=1;entryDx=0;entryDy=0;" edge="1" parent="1" source="RoFxJig_Ldpdsz5BAczf-40" target="RoFxJig_Ldpdsz5BAczf-29">
          <mxGeometry relative="1" as="geometry" />
        </mxCell>
        <mxCell id="RoFxJig_Ldpdsz5BAczf-39" style="edgeStyle=orthogonalEdgeStyle;rounded=0;orthogonalLoop=1;jettySize=auto;html=1;exitX=1;exitY=0.5;exitDx=0;exitDy=0;entryX=0.5;entryY=1;entryDx=0;entryDy=0;" edge="1" parent="1" source="RoFxJig_Ldpdsz5BAczf-40" target="RoFxJig_Ldpdsz5BAczf-44">
          <mxGeometry relative="1" as="geometry">
            <mxPoint x="810" y="1006.25" as="targetPoint" />
          </mxGeometry>
        </mxCell>
        <mxCell id="RoFxJig_Ldpdsz5BAczf-40" value="Exist in DataBase?" style="rhombus;whiteSpace=wrap;html=1;" vertex="1" parent="1">
          <mxGeometry x="440" y="940" width="130" height="130" as="geometry" />
        </mxCell>
        <mxCell id="RoFxJig_Ldpdsz5BAczf-41" value="Yes" style="text;html=1;strokeColor=none;fillColor=none;align=center;verticalAlign=middle;whiteSpace=wrap;rounded=0;" vertex="1" parent="1">
          <mxGeometry x="580" y="1010" width="60" height="30" as="geometry" />
        </mxCell>
        <mxCell id="RoFxJig_Ldpdsz5BAczf-42" value="No" style="text;html=1;strokeColor=none;fillColor=none;align=center;verticalAlign=middle;whiteSpace=wrap;rounded=0;" vertex="1" parent="1">
          <mxGeometry x="320" y="1016.25" width="60" height="30" as="geometry" />
        </mxCell>
        <mxCell id="RoFxJig_Ldpdsz5BAczf-43" value="Handle a error and back to main menu" style="text;html=1;strokeColor=none;fillColor=none;align=center;verticalAlign=middle;whiteSpace=wrap;rounded=0;" vertex="1" parent="1">
          <mxGeometry x="220" y="911.25" width="80" height="30" as="geometry" />
        </mxCell>
        <mxCell id="RoFxJig_Ldpdsz5BAczf-46" style="edgeStyle=orthogonalEdgeStyle;rounded=0;orthogonalLoop=1;jettySize=auto;html=1;" edge="1" parent="1" source="RoFxJig_Ldpdsz5BAczf-44" target="RoFxJig_Ldpdsz5BAczf-29">
          <mxGeometry relative="1" as="geometry">
            <Array as="points">
              <mxPoint x="750" y="690" />
              <mxPoint x="330" y="690" />
            </Array>
          </mxGeometry>
        </mxCell>
        <mxCell id="RoFxJig_Ldpdsz5BAczf-44" value="Cat Player info in Data Base" style="rounded=1;whiteSpace=wrap;html=1;" vertex="1" parent="1">
          <mxGeometry x="710" y="800" width="140" height="140" as="geometry" />
        </mxCell>
        <mxCell id="RoFxJig_Ldpdsz5BAczf-45" value="Player Info" style="shape=umlFrame;whiteSpace=wrap;html=1;pointerEvents=0;width=120;height=30;" vertex="1" parent="1">
          <mxGeometry x="190" y="630" width="820" height="480" as="geometry" />
        </mxCell>
        <mxCell id="RoFxJig_Ldpdsz5BAczf-50" value="player info" style="text;html=1;strokeColor=none;fillColor=none;align=center;verticalAlign=middle;whiteSpace=wrap;rounded=0;" vertex="1" parent="1">
          <mxGeometry x="490" y="660" width="60" height="30" as="geometry" />
        </mxCell>
        <mxCell id="RoFxJig_Ldpdsz5BAczf-59" style="edgeStyle=orthogonalEdgeStyle;rounded=0;orthogonalLoop=1;jettySize=auto;html=1;entryX=0;entryY=0.5;entryDx=0;entryDy=0;" edge="1" parent="1" source="RoFxJig_Ldpdsz5BAczf-51" target="RoFxJig_Ldpdsz5BAczf-53">
          <mxGeometry relative="1" as="geometry" />
        </mxCell>
        <mxCell id="RoFxJig_Ldpdsz5BAczf-51" value="User" style="ellipse;whiteSpace=wrap;html=1;" vertex="1" parent="1">
          <mxGeometry x="1150" y="1194.89" width="120" height="80" as="geometry" />
        </mxCell>
        <mxCell id="RoFxJig_Ldpdsz5BAczf-62" style="edgeStyle=orthogonalEdgeStyle;rounded=0;orthogonalLoop=1;jettySize=auto;html=1;" edge="1" parent="1" source="RoFxJig_Ldpdsz5BAczf-52" target="RoFxJig_Ldpdsz5BAczf-61">
          <mxGeometry relative="1" as="geometry" />
        </mxCell>
        <mxCell id="RoFxJig_Ldpdsz5BAczf-137" style="edgeStyle=orthogonalEdgeStyle;rounded=0;orthogonalLoop=1;jettySize=auto;html=1;" edge="1" parent="1" source="RoFxJig_Ldpdsz5BAczf-52" target="RoFxJig_Ldpdsz5BAczf-135">
          <mxGeometry relative="1" as="geometry">
            <Array as="points">
              <mxPoint x="1745" y="1342" />
            </Array>
          </mxGeometry>
        </mxCell>
        <mxCell id="RoFxJig_Ldpdsz5BAczf-52" value="Check if amount of &lt;br&gt;players is &amp;gt;= 2" style="rhombus;whiteSpace=wrap;html=1;" vertex="1" parent="1">
          <mxGeometry x="1680" y="1169.89" width="130" height="130" as="geometry" />
        </mxCell>
        <mxCell id="RoFxJig_Ldpdsz5BAczf-60" style="edgeStyle=orthogonalEdgeStyle;rounded=0;orthogonalLoop=1;jettySize=auto;html=1;entryX=0;entryY=0.5;entryDx=0;entryDy=0;" edge="1" parent="1" source="RoFxJig_Ldpdsz5BAczf-53" target="RoFxJig_Ldpdsz5BAczf-52">
          <mxGeometry relative="1" as="geometry" />
        </mxCell>
        <mxCell id="RoFxJig_Ldpdsz5BAczf-53" value="Catch amount of players in DB" style="rounded=1;whiteSpace=wrap;html=1;" vertex="1" parent="1">
          <mxGeometry x="1410" y="1174.89" width="120" height="120" as="geometry" />
        </mxCell>
        <mxCell id="RoFxJig_Ldpdsz5BAczf-58" style="edgeStyle=orthogonalEdgeStyle;rounded=0;orthogonalLoop=1;jettySize=auto;html=1;entryX=0.5;entryY=0;entryDx=0;entryDy=0;" edge="1" parent="1" source="RoFxJig_Ldpdsz5BAczf-54" target="RoFxJig_Ldpdsz5BAczf-53">
          <mxGeometry relative="1" as="geometry" />
        </mxCell>
        <mxCell id="RoFxJig_Ldpdsz5BAczf-54" value="B" style="rounded=0;whiteSpace=wrap;html=1;" vertex="1" parent="1">
          <mxGeometry x="1550" y="1129.89" width="40" height="40" as="geometry" />
        </mxCell>
        <mxCell id="RoFxJig_Ldpdsz5BAczf-55" value="" style="endArrow=none;html=1;rounded=0;exitX=1;exitY=0;exitDx=0;exitDy=0;" edge="1" parent="1" source="RoFxJig_Ldpdsz5BAczf-54">
          <mxGeometry width="50" height="50" relative="1" as="geometry">
            <mxPoint x="1550" y="1139.89" as="sourcePoint" />
            <mxPoint x="1690" y="1129.89" as="targetPoint" />
          </mxGeometry>
        </mxCell>
        <mxCell id="RoFxJig_Ldpdsz5BAczf-56" value="Players info" style="text;html=1;strokeColor=none;fillColor=none;align=center;verticalAlign=middle;whiteSpace=wrap;rounded=0;" vertex="1" parent="1">
          <mxGeometry x="1600" y="1134.89" width="70" height="30" as="geometry" />
        </mxCell>
        <mxCell id="RoFxJig_Ldpdsz5BAczf-57" value="" style="endArrow=none;html=1;rounded=0;exitX=1;exitY=0;exitDx=0;exitDy=0;" edge="1" parent="1">
          <mxGeometry width="50" height="50" relative="1" as="geometry">
            <mxPoint x="1590" y="1169.89" as="sourcePoint" />
            <mxPoint x="1690" y="1169.89" as="targetPoint" />
          </mxGeometry>
        </mxCell>
        <mxCell id="RoFxJig_Ldpdsz5BAczf-63" style="edgeStyle=orthogonalEdgeStyle;rounded=0;orthogonalLoop=1;jettySize=auto;html=1;entryX=0.25;entryY=0;entryDx=0;entryDy=0;" edge="1" parent="1" source="RoFxJig_Ldpdsz5BAczf-61" target="RoFxJig_Ldpdsz5BAczf-53">
          <mxGeometry relative="1" as="geometry">
            <Array as="points">
              <mxPoint x="2000" y="1099.89" />
              <mxPoint x="1440" y="1099.89" />
            </Array>
          </mxGeometry>
        </mxCell>
        <mxCell id="RoFxJig_Ldpdsz5BAczf-61" value="Register player screen" style="rounded=1;whiteSpace=wrap;html=1;" vertex="1" parent="1">
          <mxGeometry x="1940" y="1187.39" width="100" height="95" as="geometry" />
        </mxCell>
        <mxCell id="RoFxJig_Ldpdsz5BAczf-64" value="No" style="text;html=1;strokeColor=none;fillColor=none;align=center;verticalAlign=middle;whiteSpace=wrap;rounded=0;" vertex="1" parent="1">
          <mxGeometry x="1800" y="1199.89" width="60" height="30" as="geometry" />
        </mxCell>
        <mxCell id="RoFxJig_Ldpdsz5BAczf-69" style="edgeStyle=orthogonalEdgeStyle;rounded=0;orthogonalLoop=1;jettySize=auto;html=1;entryX=0.5;entryY=0;entryDx=0;entryDy=0;" edge="1" parent="1" source="RoFxJig_Ldpdsz5BAczf-65" target="RoFxJig_Ldpdsz5BAczf-68">
          <mxGeometry relative="1" as="geometry" />
        </mxCell>
        <mxCell id="RoFxJig_Ldpdsz5BAczf-65" value="Player roll a dice" style="rounded=1;whiteSpace=wrap;html=1;" vertex="1" parent="1">
          <mxGeometry x="2210" y="1400" width="90" height="90" as="geometry" />
        </mxCell>
        <mxCell id="RoFxJig_Ldpdsz5BAczf-67" value="Yes" style="text;html=1;strokeColor=none;fillColor=none;align=center;verticalAlign=middle;whiteSpace=wrap;rounded=0;" vertex="1" parent="1">
          <mxGeometry x="1682.5" y="1294.89" width="60" height="30" as="geometry" />
        </mxCell>
        <mxCell id="RoFxJig_Ldpdsz5BAczf-71" value="" style="edgeStyle=orthogonalEdgeStyle;rounded=0;orthogonalLoop=1;jettySize=auto;html=1;" edge="1" parent="1" source="RoFxJig_Ldpdsz5BAczf-68" target="RoFxJig_Ldpdsz5BAczf-70">
          <mxGeometry relative="1" as="geometry" />
        </mxCell>
        <mxCell id="RoFxJig_Ldpdsz5BAczf-139" value="" style="edgeStyle=orthogonalEdgeStyle;rounded=0;orthogonalLoop=1;jettySize=auto;html=1;" edge="1" parent="1" source="RoFxJig_Ldpdsz5BAczf-68" target="RoFxJig_Ldpdsz5BAczf-138">
          <mxGeometry relative="1" as="geometry" />
        </mxCell>
        <mxCell id="RoFxJig_Ldpdsz5BAczf-68" value="Dice == 6 or 1?" style="rhombus;whiteSpace=wrap;html=1;" vertex="1" parent="1">
          <mxGeometry x="2190" y="1540" width="130" height="130" as="geometry" />
        </mxCell>
        <mxCell id="RoFxJig_Ldpdsz5BAczf-96" value="" style="edgeStyle=orthogonalEdgeStyle;rounded=0;orthogonalLoop=1;jettySize=auto;html=1;" edge="1" parent="1" source="RoFxJig_Ldpdsz5BAczf-70" target="RoFxJig_Ldpdsz5BAczf-95">
          <mxGeometry relative="1" as="geometry" />
        </mxCell>
        <mxCell id="RoFxJig_Ldpdsz5BAczf-125" style="edgeStyle=orthogonalEdgeStyle;rounded=0;orthogonalLoop=1;jettySize=auto;html=1;entryX=0.5;entryY=0;entryDx=0;entryDy=0;" edge="1" parent="1" source="RoFxJig_Ldpdsz5BAczf-70" target="RoFxJig_Ldpdsz5BAczf-101">
          <mxGeometry relative="1" as="geometry" />
        </mxCell>
        <mxCell id="RoFxJig_Ldpdsz5BAczf-70" value="Player have Pawns in Base" style="rhombus;whiteSpace=wrap;html=1;" vertex="1" parent="1">
          <mxGeometry x="2510" y="1535" width="140" height="140" as="geometry" />
        </mxCell>
        <mxCell id="RoFxJig_Ldpdsz5BAczf-72" value="Yes" style="text;html=1;strokeColor=none;fillColor=none;align=center;verticalAlign=middle;whiteSpace=wrap;rounded=0;" vertex="1" parent="1">
          <mxGeometry x="2310" y="1570" width="60" height="30" as="geometry" />
        </mxCell>
        <mxCell id="RoFxJig_Ldpdsz5BAczf-76" value="No" style="text;html=1;strokeColor=none;fillColor=none;align=center;verticalAlign=middle;whiteSpace=wrap;rounded=0;" vertex="1" parent="1">
          <mxGeometry x="2250" y="1660" width="60" height="30" as="geometry" />
        </mxCell>
        <mxCell id="RoFxJig_Ldpdsz5BAczf-130" value="" style="edgeStyle=orthogonalEdgeStyle;rounded=0;orthogonalLoop=1;jettySize=auto;html=1;" edge="1" parent="1" source="RoFxJig_Ldpdsz5BAczf-77" target="RoFxJig_Ldpdsz5BAczf-129">
          <mxGeometry relative="1" as="geometry" />
        </mxCell>
        <mxCell id="RoFxJig_Ldpdsz5BAczf-77" value="Choose one Pawn&lt;br style=&quot;border-color: var(--border-color);&quot;&gt;in table to move" style="rounded=1;whiteSpace=wrap;html=1;" vertex="1" parent="1">
          <mxGeometry x="2212.5" y="1907.5" width="85" height="85" as="geometry" />
        </mxCell>
        <mxCell id="RoFxJig_Ldpdsz5BAczf-81" value="No" style="text;html=1;strokeColor=none;fillColor=none;align=center;verticalAlign=middle;whiteSpace=wrap;rounded=0;" vertex="1" parent="1">
          <mxGeometry x="2537.5" y="1670" width="60" height="30" as="geometry" />
        </mxCell>
        <mxCell id="RoFxJig_Ldpdsz5BAczf-112" style="edgeStyle=orthogonalEdgeStyle;rounded=0;orthogonalLoop=1;jettySize=auto;html=1;entryX=0.5;entryY=1;entryDx=0;entryDy=0;" edge="1" parent="1" source="RoFxJig_Ldpdsz5BAczf-85" target="RoFxJig_Ldpdsz5BAczf-106">
          <mxGeometry relative="1" as="geometry" />
        </mxCell>
        <mxCell id="RoFxJig_Ldpdsz5BAczf-114" value="" style="edgeStyle=orthogonalEdgeStyle;rounded=0;orthogonalLoop=1;jettySize=auto;html=1;" edge="1" parent="1" source="RoFxJig_Ldpdsz5BAczf-85" target="RoFxJig_Ldpdsz5BAczf-113">
          <mxGeometry relative="1" as="geometry" />
        </mxCell>
        <mxCell id="RoFxJig_Ldpdsz5BAczf-85" value="Kill a Enemy Pawn?" style="rhombus;whiteSpace=wrap;html=1;" vertex="1" parent="1">
          <mxGeometry x="1620" y="1885" width="130" height="130" as="geometry" />
        </mxCell>
        <mxCell id="RoFxJig_Ldpdsz5BAczf-88" value="Yes" style="text;html=1;strokeColor=none;fillColor=none;align=center;verticalAlign=middle;whiteSpace=wrap;rounded=0;" vertex="1" parent="1">
          <mxGeometry x="1667.5" y="1860" width="60" height="30" as="geometry" />
        </mxCell>
        <mxCell id="RoFxJig_Ldpdsz5BAczf-92" style="edgeStyle=orthogonalEdgeStyle;rounded=0;orthogonalLoop=1;jettySize=auto;html=1;entryX=0;entryY=0.5;entryDx=0;entryDy=0;" edge="1" parent="1" source="RoFxJig_Ldpdsz5BAczf-89" target="RoFxJig_Ldpdsz5BAczf-65">
          <mxGeometry relative="1" as="geometry">
            <Array as="points">
              <mxPoint x="1805" y="1445" />
            </Array>
          </mxGeometry>
        </mxCell>
        <mxCell id="RoFxJig_Ldpdsz5BAczf-89" value="Change Current Player" style="rounded=1;whiteSpace=wrap;html=1;" vertex="1" parent="1">
          <mxGeometry x="1330" y="1425" width="110" height="110" as="geometry" />
        </mxCell>
        <mxCell id="RoFxJig_Ldpdsz5BAczf-91" value="No" style="text;html=1;strokeColor=none;fillColor=none;align=center;verticalAlign=middle;whiteSpace=wrap;rounded=0;" vertex="1" parent="1">
          <mxGeometry x="1582.5" y="1917.5" width="60" height="30" as="geometry" />
        </mxCell>
        <mxCell id="RoFxJig_Ldpdsz5BAczf-121" style="edgeStyle=orthogonalEdgeStyle;rounded=0;orthogonalLoop=1;jettySize=auto;html=1;exitX=1;exitY=0.5;exitDx=0;exitDy=0;entryX=0;entryY=0.5;entryDx=0;entryDy=0;" edge="1" parent="1" source="RoFxJig_Ldpdsz5BAczf-95" target="RoFxJig_Ldpdsz5BAczf-120">
          <mxGeometry relative="1" as="geometry" />
        </mxCell>
        <mxCell id="RoFxJig_Ldpdsz5BAczf-151" style="edgeStyle=orthogonalEdgeStyle;rounded=0;orthogonalLoop=1;jettySize=auto;html=1;entryX=0.5;entryY=0;entryDx=0;entryDy=0;" edge="1" parent="1" source="RoFxJig_Ldpdsz5BAczf-95" target="RoFxJig_Ldpdsz5BAczf-150">
          <mxGeometry relative="1" as="geometry" />
        </mxCell>
        <mxCell id="RoFxJig_Ldpdsz5BAczf-95" value="Player wants to move&lt;br&gt;&amp;nbsp;a table Pawn or remove a Pawn from base?&amp;nbsp;" style="rhombus;whiteSpace=wrap;html=1;" vertex="1" parent="1">
          <mxGeometry x="2770" y="1527.5" width="155" height="155" as="geometry" />
        </mxCell>
        <mxCell id="RoFxJig_Ldpdsz5BAczf-100" value="Remove Pawn from base" style="text;html=1;strokeColor=none;fillColor=none;align=center;verticalAlign=middle;whiteSpace=wrap;rounded=0;" vertex="1" parent="1">
          <mxGeometry x="2920" y="1562.5" width="60" height="30" as="geometry" />
        </mxCell>
        <mxCell id="RoFxJig_Ldpdsz5BAczf-103" style="edgeStyle=orthogonalEdgeStyle;rounded=0;orthogonalLoop=1;jettySize=auto;html=1;entryX=1;entryY=0.5;entryDx=0;entryDy=0;" edge="1" parent="1" source="RoFxJig_Ldpdsz5BAczf-101" target="RoFxJig_Ldpdsz5BAczf-77">
          <mxGeometry relative="1" as="geometry" />
        </mxCell>
        <mxCell id="RoFxJig_Ldpdsz5BAczf-101" value="Plus 1 in player dice roll" style="rounded=1;whiteSpace=wrap;html=1;" vertex="1" parent="1">
          <mxGeometry x="2537.5" y="1907.5" width="85" height="85" as="geometry" />
        </mxCell>
        <mxCell id="RoFxJig_Ldpdsz5BAczf-104" value="Yes" style="text;html=1;strokeColor=none;fillColor=none;align=center;verticalAlign=middle;whiteSpace=wrap;rounded=0;" vertex="1" parent="1">
          <mxGeometry x="2630" y="1580" width="60" height="30" as="geometry" />
        </mxCell>
        <mxCell id="RoFxJig_Ldpdsz5BAczf-106" value="Plus 1 in player dice roll" style="rounded=1;whiteSpace=wrap;html=1;" vertex="1" parent="1">
          <mxGeometry x="1802.5" y="1545" width="85" height="85" as="geometry" />
        </mxCell>
        <mxCell id="RoFxJig_Ldpdsz5BAczf-142" style="edgeStyle=orthogonalEdgeStyle;rounded=0;orthogonalLoop=1;jettySize=auto;html=1;entryX=0.25;entryY=1;entryDx=0;entryDy=0;" edge="1" parent="1" source="RoFxJig_Ldpdsz5BAczf-113" target="RoFxJig_Ldpdsz5BAczf-89">
          <mxGeometry relative="1" as="geometry">
            <Array as="points">
              <mxPoint x="1358" y="1950" />
            </Array>
          </mxGeometry>
        </mxCell>
        <mxCell id="RoFxJig_Ldpdsz5BAczf-113" value="Player still has dice rolls" style="rhombus;whiteSpace=wrap;html=1;" vertex="1" parent="1">
          <mxGeometry x="1410" y="1885" width="130" height="130" as="geometry" />
        </mxCell>
        <mxCell id="RoFxJig_Ldpdsz5BAczf-115" value="" style="endArrow=none;html=1;rounded=0;exitX=0.5;exitY=0;exitDx=0;exitDy=0;" edge="1" parent="1" source="RoFxJig_Ldpdsz5BAczf-106">
          <mxGeometry width="50" height="50" relative="1" as="geometry">
            <mxPoint x="1560" y="1620" as="sourcePoint" />
            <mxPoint x="1845" y="1450" as="targetPoint" />
          </mxGeometry>
        </mxCell>
        <mxCell id="RoFxJig_Ldpdsz5BAczf-116" value="" style="endArrow=none;html=1;rounded=0;exitX=0.5;exitY=0;exitDx=0;exitDy=0;" edge="1" parent="1" source="RoFxJig_Ldpdsz5BAczf-113">
          <mxGeometry width="50" height="50" relative="1" as="geometry">
            <mxPoint x="1650" y="1560" as="sourcePoint" />
            <mxPoint x="1475" y="1450" as="targetPoint" />
          </mxGeometry>
        </mxCell>
        <mxCell id="RoFxJig_Ldpdsz5BAczf-117" value="Yes" style="text;html=1;strokeColor=none;fillColor=none;align=center;verticalAlign=middle;whiteSpace=wrap;rounded=0;" vertex="1" parent="1">
          <mxGeometry x="1420" y="1860" width="60" height="30" as="geometry" />
        </mxCell>
        <mxCell id="RoFxJig_Ldpdsz5BAczf-119" value="No" style="text;html=1;strokeColor=none;fillColor=none;align=center;verticalAlign=middle;whiteSpace=wrap;rounded=0;" vertex="1" parent="1">
          <mxGeometry x="1370" y="1947.5" width="60" height="30" as="geometry" />
        </mxCell>
        <mxCell id="RoFxJig_Ldpdsz5BAczf-124" style="edgeStyle=orthogonalEdgeStyle;rounded=0;orthogonalLoop=1;jettySize=auto;html=1;" edge="1" parent="1" source="RoFxJig_Ldpdsz5BAczf-120" target="RoFxJig_Ldpdsz5BAczf-89">
          <mxGeometry relative="1" as="geometry">
            <Array as="points">
              <mxPoint x="3110" y="2160" />
              <mxPoint x="1240" y="2160" />
              <mxPoint x="1240" y="1480" />
            </Array>
          </mxGeometry>
        </mxCell>
        <mxCell id="RoFxJig_Ldpdsz5BAczf-120" value="Leave a Pawn from base" style="rounded=1;whiteSpace=wrap;html=1;" vertex="1" parent="1">
          <mxGeometry x="3050" y="1562.5" width="85" height="85" as="geometry" />
        </mxCell>
        <mxCell id="RoFxJig_Ldpdsz5BAczf-122" value="move a table pawn" style="text;html=1;strokeColor=none;fillColor=none;align=center;verticalAlign=middle;whiteSpace=wrap;rounded=0;" vertex="1" parent="1">
          <mxGeometry x="2840" y="1690" width="60" height="30" as="geometry" />
        </mxCell>
        <mxCell id="RoFxJig_Ldpdsz5BAczf-131" style="edgeStyle=orthogonalEdgeStyle;rounded=0;orthogonalLoop=1;jettySize=auto;html=1;entryX=1;entryY=0.5;entryDx=0;entryDy=0;" edge="1" parent="1" source="RoFxJig_Ldpdsz5BAczf-129" target="RoFxJig_Ldpdsz5BAczf-85">
          <mxGeometry relative="1" as="geometry" />
        </mxCell>
        <mxCell id="RoFxJig_Ldpdsz5BAczf-129" value="Minus 1 in player dice rolls" style="rounded=1;whiteSpace=wrap;html=1;" vertex="1" parent="1">
          <mxGeometry x="1865" y="1907.5" width="85" height="85" as="geometry" />
        </mxCell>
        <mxCell id="RoFxJig_Ldpdsz5BAczf-134" value="Start Game" style="shape=umlFrame;whiteSpace=wrap;html=1;pointerEvents=0;width=100;height=40;" vertex="1" parent="1">
          <mxGeometry x="1110" y="1070" width="2050" height="1240" as="geometry" />
        </mxCell>
        <mxCell id="RoFxJig_Ldpdsz5BAczf-136" style="edgeStyle=orthogonalEdgeStyle;rounded=0;orthogonalLoop=1;jettySize=auto;html=1;" edge="1" parent="1" source="RoFxJig_Ldpdsz5BAczf-135" target="RoFxJig_Ldpdsz5BAczf-65">
          <mxGeometry relative="1" as="geometry" />
        </mxCell>
        <mxCell id="RoFxJig_Ldpdsz5BAczf-135" value="Insert Players Name" style="rounded=1;whiteSpace=wrap;html=1;" vertex="1" parent="1">
          <mxGeometry x="1850" y="1299.89" width="100" height="95" as="geometry" />
        </mxCell>
        <mxCell id="RoFxJig_Ldpdsz5BAczf-144" style="edgeStyle=orthogonalEdgeStyle;rounded=0;orthogonalLoop=1;jettySize=auto;html=1;entryX=1;entryY=0.5;entryDx=0;entryDy=0;" edge="1" parent="1" source="RoFxJig_Ldpdsz5BAczf-138" target="RoFxJig_Ldpdsz5BAczf-143">
          <mxGeometry relative="1" as="geometry" />
        </mxCell>
        <mxCell id="RoFxJig_Ldpdsz5BAczf-145" style="edgeStyle=orthogonalEdgeStyle;rounded=0;orthogonalLoop=1;jettySize=auto;html=1;entryX=0.5;entryY=0;entryDx=0;entryDy=0;" edge="1" parent="1" source="RoFxJig_Ldpdsz5BAczf-138" target="RoFxJig_Ldpdsz5BAczf-77">
          <mxGeometry relative="1" as="geometry" />
        </mxCell>
        <mxCell id="RoFxJig_Ldpdsz5BAczf-138" value="Player has Pawns &lt;br&gt;in table" style="rhombus;whiteSpace=wrap;html=1;" vertex="1" parent="1">
          <mxGeometry x="2190" y="1720" width="130" height="130" as="geometry" />
        </mxCell>
        <mxCell id="RoFxJig_Ldpdsz5BAczf-143" value="Change Current Player" style="rounded=1;whiteSpace=wrap;html=1;" vertex="1" parent="1">
          <mxGeometry x="1970" y="1730" width="110" height="110" as="geometry" />
        </mxCell>
        <mxCell id="RoFxJig_Ldpdsz5BAczf-146" value="No" style="text;html=1;strokeColor=none;fillColor=none;align=center;verticalAlign=middle;whiteSpace=wrap;rounded=0;" vertex="1" parent="1">
          <mxGeometry x="2140" y="1760" width="60" height="30" as="geometry" />
        </mxCell>
        <mxCell id="RoFxJig_Ldpdsz5BAczf-147" value="Yes" style="text;html=1;strokeColor=none;fillColor=none;align=center;verticalAlign=middle;whiteSpace=wrap;rounded=0;" vertex="1" parent="1">
          <mxGeometry x="2250" y="1840" width="60" height="30" as="geometry" />
        </mxCell>
        <mxCell id="RoFxJig_Ldpdsz5BAczf-148" value="" style="endArrow=none;html=1;rounded=0;entryX=0.5;entryY=0;entryDx=0;entryDy=0;" edge="1" parent="1" target="RoFxJig_Ldpdsz5BAczf-143">
          <mxGeometry width="50" height="50" relative="1" as="geometry">
            <mxPoint x="2025" y="1450" as="sourcePoint" />
            <mxPoint x="1855" y="1460" as="targetPoint" />
          </mxGeometry>
        </mxCell>
        <mxCell id="RoFxJig_Ldpdsz5BAczf-152" style="edgeStyle=orthogonalEdgeStyle;rounded=0;orthogonalLoop=1;jettySize=auto;html=1;entryX=1;entryY=0.5;entryDx=0;entryDy=0;" edge="1" parent="1" source="RoFxJig_Ldpdsz5BAczf-150" target="RoFxJig_Ldpdsz5BAczf-101">
          <mxGeometry relative="1" as="geometry">
            <Array as="points">
              <mxPoint x="2848" y="1950" />
            </Array>
          </mxGeometry>
        </mxCell>
        <mxCell id="RoFxJig_Ldpdsz5BAczf-157" style="edgeStyle=orthogonalEdgeStyle;rounded=0;orthogonalLoop=1;jettySize=auto;html=1;entryX=0.25;entryY=1;entryDx=0;entryDy=0;" edge="1" parent="1" source="RoFxJig_Ldpdsz5BAczf-150" target="RoFxJig_Ldpdsz5BAczf-120">
          <mxGeometry relative="1" as="geometry" />
        </mxCell>
        <mxCell id="RoFxJig_Ldpdsz5BAczf-158" value="Handle a error" style="edgeLabel;html=1;align=center;verticalAlign=middle;resizable=0;points=[];" vertex="1" connectable="0" parent="RoFxJig_Ldpdsz5BAczf-157">
          <mxGeometry x="-0.4095" y="-4" relative="1" as="geometry">
            <mxPoint x="-12" y="-4" as="offset" />
          </mxGeometry>
        </mxCell>
        <mxCell id="RoFxJig_Ldpdsz5BAczf-150" value="Player has Pawns &lt;br&gt;in table" style="rhombus;whiteSpace=wrap;html=1;" vertex="1" parent="1">
          <mxGeometry x="2782.5" y="1760" width="130" height="130" as="geometry" />
        </mxCell>
        <mxCell id="RoFxJig_Ldpdsz5BAczf-154" value="Yes" style="text;html=1;strokeColor=none;fillColor=none;align=center;verticalAlign=middle;whiteSpace=wrap;rounded=0;" vertex="1" parent="1">
          <mxGeometry x="2800" y="1885" width="60" height="30" as="geometry" />
        </mxCell>
        <mxCell id="RoFxJig_Ldpdsz5BAczf-155" value="No" style="text;html=1;strokeColor=none;fillColor=none;align=center;verticalAlign=middle;whiteSpace=wrap;rounded=0;" vertex="1" parent="1">
          <mxGeometry x="2890" y="1800" width="60" height="30" as="geometry" />
        </mxCell>
      </root>
    </mxGraphModel>
  </diagram>
</mxfile>
